
<svg xmlns="http://www.w3.org/2000/svg" xmlns:xlink="http://www.w3.org/1999/xlink" viewBox="0 0 30 36" width="30" height="36" fill="none">
  <svg xmlns="http://www.w3.org/2000/svg" viewBox="0 0 576 512" width="30" height="30" fill="#030303" x="0" y="3" opacity="100%">
    <path d="M320 160H48.5C100.2 82.82 188.1 32 288 32C298.8 32 309.5 32.6 320 33.76V160zM352 39.14C424.9 55.67 487.2 99.82 527.5 160H352V39.14zM96 192V320H0C0 274 10.77 230.6 29.94 192H96zM192 320H128V192H448V320H384V352H576V432C576 458.5 554.5 480 528 480H352V352C352 316.7 323.3 288 288 288C252.7 288 224 316.7 224 352V480H48C21.49 480 0 458.5 0 432V352H192V320zM480 192H546.1C565.2 230.6 576 274 576 320H480V192z"></path>
  </svg>
  <defs>
    <filter id="filter_dshadow_0_0_0_00000014" color-interpolation-filters="sRGB" filterUnits="userSpaceOnUse">
      <feFlood flood-opacity="0" result="bg-fix"></feFlood>
      <feColorMatrix in="SourceAlpha" type="matrix" values="0 0 0 0 0 0 0 0 0 0 0 0 0 0 0 0 0 0 127 0" result="alpha"></feColorMatrix>
      <feOffset dx="0" dy="0"></feOffset>
      <feGaussianBlur stdDeviation="0"></feGaussianBlur>
      <feComposite in2="alpha" operator="out"></feComposite>
      <feColorMatrix type="matrix" values="0 0 0 0 0 0 0 0 0 0 0 0 0 0 0 0 0 0 0.08 0"></feColorMatrix>
      <feBlend mode="normal" in2="bg-fix" result="bg-fix-filter_dshadow_0_0_0_00000014"></feBlend>
      <feBlend in="SourceGraphic" in2="bg-fix-filter_dshadow_0_0_0_00000014" result="shape"></feBlend>
    </filter>
  </defs>
</svg>